<svg width="16" height="33" viewBox="0 0 16 33" fill="none" xmlns="http://www.w3.org/2000/svg">
<path d="M14.9839 29.4388L14.5158 31.3236C13.1114 31.8696 11.9897 32.2851 11.1543 32.5709C10.3181 32.8574 9.34643 33 8.23936 33C6.53926 33 5.2169 32.5898 4.27377 31.775C3.33064 30.9569 2.85893 29.9202 2.85893 28.6627C2.85893 28.1759 2.89316 27.6751 2.96432 27.165C3.03609 26.6542 3.15019 26.0789 3.30632 25.4359L5.06137 19.3173C5.2175 18.7314 5.35022 18.1762 5.45651 17.6512C5.56431 17.1295 5.61625 16.6495 5.61625 16.2174C5.61625 15.436 5.45201 14.8894 5.12502 14.5821C4.79803 14.2757 4.17409 14.1202 3.24777 14.1202C2.79407 14.1202 2.32776 14.1917 1.85245 14.3302C1.37503 14.4692 0.966968 14.6034 0.624367 14.7282L1.09368 12.8419C2.24339 12.3808 3.34236 11.986 4.39358 11.6583C5.4448 11.3297 6.43808 11.1652 7.3776 11.1652C9.06598 11.1652 10.3688 11.5672 11.2837 12.371C12.1986 13.1755 12.6559 14.2184 12.6559 15.5034C12.6559 15.7693 12.6259 16.2378 12.5614 16.9074C12.4983 17.5785 12.3809 18.1934 12.2097 18.7527L10.4622 24.8468C10.319 25.3363 10.1902 25.8958 10.0782 26.5255C9.96257 27.1511 9.90732 27.629 9.90732 27.9496C9.90732 28.7588 10.0905 29.3113 10.4577 29.605C10.8276 29.8987 11.4648 30.0448 12.3698 30.0448C12.7947 30.0448 13.2781 29.9705 13.8153 29.8247C14.3509 29.6789 14.7416 29.5508 14.9839 29.4388ZM15.4271 3.85375C15.4271 4.91553 15.0208 5.82233 14.2044 6.56794C13.3901 7.31621 12.4088 7.69064 11.2609 7.69064C10.1094 7.69064 9.12574 7.31621 8.30211 6.56794C7.47999 5.82203 7.06803 4.91553 7.06803 3.85375C7.06803 2.79404 7.47999 1.88576 8.30211 1.13069C9.12424 0.376798 10.1097 0 11.2609 0C12.4085 0 13.3901 0.377685 14.2044 1.13069C15.0214 1.88576 15.4271 2.79434 15.4271 3.85375Z" fill="white"/>
</svg>
