<svg width="27" height="44" viewBox="0 0 27 44" fill="none" xmlns="http://www.w3.org/2000/svg">
<path d="M4.03381 43.7972C4.25014 43.9339 4.49449 44 4.73688 44C5.11154 44 5.48229 43.8408 5.73772 43.5392L26.4028 19.1714C26.7273 18.7889 26.797 18.2941 26.5827 17.8429C26.3683 17.3923 25.9083 17.142 25.4026 17.142H17.175L24.8716 1.87902C25.1609 1.30588 24.9785 0.592184 24.4435 0.229559C23.9066 -0.133066 23.1827 -0.0611832 22.7448 0.41055L0.875567 23.9048C0.526316 24.2803 0.435094 24.8585 0.643602 25.3245C0.851459 25.7911 1.31995 26.1274 1.83666 26.1274H11.3727L3.56141 42.2023C3.27862 42.7857 3.48062 43.4474 4.03381 43.7972ZM14.6143 25.32C14.8072 24.9227 14.7792 24.4933 14.5407 24.1211C14.3022 23.7476 13.8858 23.5601 13.4388 23.5601H4.79943L18.415 8.8902L13.9034 17.796C13.7021 18.1939 13.7242 18.6946 13.9621 19.0726C14.1992 19.4506 14.6189 19.7093 15.0698 19.7093H22.6158L10.3744 34.1064L14.6143 25.32Z" fill="white"/>
</svg>
