<svg width="64" height="55" viewBox="0 0 64 55" fill="none" xmlns="http://www.w3.org/2000/svg">
<path d="M60.8246 31.4314H55.4794V55H34.6689V45.1886L42.9677 36.9701L45.0741 37.3258C46.3085 37.3258 47.5152 36.963 48.5416 36.2832C49.568 35.6035 50.368 34.6374 50.8404 33.5071C51.3128 32.3767 51.4364 31.1329 51.1955 29.933C50.9547 28.733 50.3603 27.6308 49.4874 26.7656C48.6146 25.9005 47.5024 25.3114 46.2917 25.0727C45.081 24.834 43.8261 24.9565 42.6856 25.4247C41.5452 25.8929 40.5704 26.6858 39.8846 27.703C39.1988 28.7203 38.8327 29.9163 38.8327 31.1398L39.127 33.2342L34.6689 37.7058V21.567C35.8941 20.9139 36.8641 19.8738 37.4247 18.612C37.9854 17.3501 38.1046 15.9387 37.7635 14.602C37.4223 13.2652 36.6404 12.0798 35.5418 11.2339C34.4432 10.388 33.0909 9.93006 31.6998 9.93292C30.3086 9.93006 28.9563 10.388 27.8577 11.2339C26.7591 12.0798 25.9772 13.2652 25.636 14.602C25.2949 15.9387 25.4141 17.3501 25.9748 18.612C26.5355 19.8738 27.5054 20.9139 28.7307 21.567V37.7058L24.2725 33.2342L24.569 31.1376C24.5686 29.9143 24.2022 28.7186 23.5162 27.7017C22.8302 26.6847 21.8554 25.8922 20.7151 25.4243C19.5747 24.9563 18.32 24.834 17.1095 25.0728C15.899 25.3115 14.7871 25.9006 13.9143 26.7656C13.0416 27.6306 12.4472 28.7327 12.2063 29.9324C11.9654 31.1322 12.0888 32.3758 12.5609 33.506C13.0331 34.6363 13.8327 35.6024 14.8587 36.2823C15.8848 36.9622 17.0912 37.3253 18.3254 37.3258L20.4319 36.9723L28.7307 45.1886V55H7.92016V31.4314H2.72199C1.47595 31.4314 0.258883 31.4314 0.258883 30.8194C0.283402 30.1721 1.52945 28.9283 2.80893 27.6602L28.7307 1.9773C29.7048 1.00301 30.7145 0 31.6998 0C32.6828 0 33.6948 1.00301 34.6689 1.9773L46.5631 13.7572V10.8144H52.5013V19.6515L60.7645 27.8413C61.957 29.0145 63.1763 30.2229 63.203 30.846C63.203 31.4314 62.0194 31.4314 60.8246 31.4314ZM18.3254 28.4887C18.683 28.4784 19.0391 28.5394 19.3725 28.668C19.7059 28.7965 20.0099 28.9901 20.2665 29.2372C20.5231 29.4843 20.7271 29.7799 20.8664 30.1065C21.0057 30.4331 21.0775 30.7841 21.0775 31.1387C21.0775 31.4933 21.0057 31.8443 20.8664 32.1709C20.7271 32.4975 20.5231 32.7931 20.2665 33.0402C20.0099 33.2873 19.7059 33.4808 19.3725 33.6094C19.0391 33.738 18.683 33.7989 18.3254 33.7887C17.6296 33.7688 16.9691 33.4809 16.4841 32.9861C15.9991 32.4913 15.7277 31.8286 15.7277 31.1387C15.7277 30.4488 15.9991 29.7861 16.4841 29.2913C16.9691 28.7965 17.6296 28.5086 18.3254 28.4887ZM45.0741 28.4887C46.5631 28.4887 47.749 29.6706 47.749 31.1398C47.749 32.6134 46.5631 33.7865 45.0741 33.7865C44.714 33.8011 44.3545 33.7434 44.0174 33.6168C43.6804 33.4903 43.3725 33.2975 43.1125 33.0501C42.8525 32.8027 42.6456 32.5057 42.5043 32.1771C42.3629 31.8484 42.2901 31.4948 42.2901 31.1376C42.2901 30.7803 42.3629 30.4267 42.5043 30.0981C42.6456 29.7694 42.8525 29.4725 43.1125 29.2251C43.3725 28.9777 43.6804 28.7849 44.0174 28.6583C44.3545 28.5318 44.714 28.4741 45.0741 28.4887ZM31.6998 13.4656C33.1888 13.4656 34.3746 14.6453 34.3746 16.1123C34.3746 17.5881 33.1888 18.7722 31.6998 18.7722C30.2107 18.7722 29.0249 17.5881 29.0249 16.1123C29.0249 14.6453 30.2107 13.4633 31.6998 13.4633V13.4656Z" fill="white"/>
</svg>
