<svg width="33" height="27" viewBox="0 0 33 27" fill="none" xmlns="http://www.w3.org/2000/svg">
<path d="M30.6882 1.23686L30.6882 1.23694L30.7007 1.23206C31.1688 1.04944 31.4895 0.996629 31.687 1.00016C31.781 1.00184 31.8332 1.01604 31.8562 1.02459C31.8676 1.02882 31.8734 1.03218 31.8754 1.03345C31.8773 1.03466 31.8782 1.03541 31.879 1.03625C31.8794 1.03659 31.8927 1.04907 31.9102 1.09046C31.9287 1.1341 31.9511 1.20834 31.9641 1.32389C31.9907 1.56162 31.9707 1.9141 31.8618 2.39618L31.8618 2.39618L31.8601 2.40416L27.0945 24.3316L27.0944 24.3315L27.0919 24.344C26.925 25.162 26.6877 25.3709 26.6154 25.4093C26.5914 25.422 26.3542 25.5347 25.646 25.1373L18.4258 19.8836L17.7635 19.4017L17.1606 19.956L12.9399 23.8367C12.8869 23.8775 12.8514 23.8784 12.8459 23.8785C12.8442 23.8777 12.8414 23.8763 12.8375 23.8737L13.2554 18.9209L28.2835 5.69874C28.4287 5.57312 28.5672 5.43206 28.6797 5.27405C28.7872 5.12298 28.9145 4.89549 28.9458 4.60713C28.9814 4.27801 28.8816 3.93221 28.6271 3.66898C28.4036 3.43779 28.1366 3.348 27.9547 3.31128C27.5953 3.23873 27.2242 3.30136 26.9266 3.39216C26.6149 3.48722 26.2874 3.64239 25.9722 3.85606L8.52716 14.3326L1.62714 12.2018C1.62299 12.1999 1.61891 12.198 1.61492 12.1961C1.69104 12.1376 1.7957 12.0733 1.93192 12.0124L30.6882 1.23686ZM12.8479 23.8792C12.8479 23.8792 12.8474 23.8791 12.8465 23.8787L12.8479 23.8792Z" stroke="white" stroke-width="2"/>
</svg>
