<svg width="50" height="51" viewBox="0 0 50 51" fill="none" xmlns="http://www.w3.org/2000/svg">
<path d="M42.6777 7.49432C37.9559 2.78122 31.6776 0.185547 25 0.185547C18.3224 0.185547 12.0441 2.78122 7.32231 7.49432C2.60048 12.2074 0 18.4741 0 25.1393C0 31.8046 2.60048 38.0712 7.32231 42.7843C12.0441 47.4975 18.3224 50.0931 25 50.0931C31.6776 50.0931 37.9559 47.4975 42.6777 42.7843C47.3995 38.0712 50 31.8046 50 25.1393C50 18.4741 47.3995 12.2074 42.6777 7.49432ZM10.8501 42.0316C11.6756 34.9417 17.7826 29.4679 25 29.4679C28.8048 29.4679 32.3826 30.9475 35.0739 33.6334C37.3474 35.9032 38.7814 38.8667 39.1502 42.0312C35.3165 45.2361 30.3802 47.1689 25 47.1689C19.6198 47.1689 14.6839 45.2365 10.8501 42.0316ZM25 26.456C20.8134 26.456 17.4068 23.0558 17.4068 18.8769C17.4068 14.6976 20.8134 11.2978 25 11.2978C29.1866 11.2978 32.5932 14.6976 32.5932 18.8769C32.5932 23.0558 29.1866 26.456 25 26.456ZM41.6718 39.5593C40.9252 36.555 39.3684 33.785 37.1452 31.5659C35.3447 29.7687 33.2146 28.4204 30.8914 27.5755C33.6842 25.685 35.5228 22.4911 35.5228 18.8769C35.5228 13.0855 30.8022 8.37351 25 8.37351C19.1978 8.37351 14.4772 13.0855 14.4772 18.8769C14.4772 22.493 16.3174 25.688 19.1124 27.5781C16.975 28.3557 14.9971 29.5577 13.2954 31.1402C10.8311 33.4309 9.1198 36.3517 8.32634 39.557C4.96597 35.6903 2.92969 30.6479 2.92969 25.1393C2.92969 12.9922 12.8304 3.10982 25 3.10982C37.1696 3.10982 47.0703 12.9922 47.0703 25.1393C47.0703 30.649 45.0333 35.6926 41.6718 39.5593Z" fill="white"/>
</svg>
